# xmcd
#
# Track frame offsets: 
#        150
#        18465
#        42852
#        62390
#        81630
#        96732
#        115612
#        122765
#        140300
#        157495
#
# Disc length: 2262 seconds
#
# Revision: 5
# Processed by: cddbd v1.5.2PL0 Copyright (c) Steve Scherf et al.
# Submitted via: ExactAudioCopyFreeDBPlugin 1.0
#
DISCID=8b08d40a
DTITLE=Hubert Sumlin - Heart and Soul
DYEAR=1989
DGENRE=Blues
TTITLE0=Your Foxy Self
TTITLE1=Chunky
TTITLE2=Sitting Ontop Of The World
TTITLE3=I Want You
TTITLE4=Bring Your Love To Me
TTITLE5=The Red Rooster
TTITLE6=Juke
TTITLE7=No Time For Me
TTITLE8=Got The Blues
TTITLE9=Old Friends
EXTD=BP73389\n\nHubert Sumlin:  lead guitar and vocals\nJames Cotton: 
EXTD=harmonica\nLittle Mike:  piano\nBrad Vickers:  bass\nTony O:  rh
EXTD=ythm guitar\nPete DeCoste:  drums\n\nSubmitted 6/27/98\n[Jmccoy@e
EXTD=fn.org] YEAR: 1989
EXTT0=
EXTT1=
EXTT2=
EXTT3=
EXTT4=
EXTT5=
EXTT6=
EXTT7=
EXTT8=
EXTT9=
PLAYORDER=
